<svg xmlns="http://www.w3.org/2000/svg" version="1.1" xmlns:xlink="http://www.w3.org/1999/xlink" xmlns:svgjs="http://svgjs.dev/svgjs" width="2000" height="1500" viewBox="0 0 2000 1500"><rect width="2000" height="1500" fill="#000000"></rect><g transform="matrix(0.75,0,0,0.75,249.09090909090912,282.7536437246963)"><svg viewBox="0 0 396 247" data-background-color="#000000" preserveAspectRatio="xMidYMid meet" height="1247" width="2000" xmlns="http://www.w3.org/2000/svg" xmlns:xlink="http://www.w3.org/1999/xlink"><g id="tight-bounds" transform="matrix(1,0,0,1,0.2400000000000091,-0.09999999999999432)"><svg viewBox="0 0 395.52 247.2" height="247.2" width="395.52"><rect width="395.52" height="247.2" fill="#ffffff" mask="url(#7cb16d35-4d86-43f4-b528-11d14271dcae)" data-fill-palette-color="tertiary"></rect><g><svg></svg></g><g><svg viewBox="0 0 395.52 247.2" height="247.2" width="395.52"><g transform="matrix(1,0,0,1,75.54432000000001,48.56042347509087)"><svg viewBox="0 0 244.43135999999996 150.07915304981825" height="150.07915304981825" width="244.43135999999996"><g><svg viewBox="0 0 248.81324511646568 152.7696" height="150.07915304981825" width="244.43135999999996"><g transform="matrix(1,0,0,1,117.32498242989851,0)"><svg viewBox="0 0 131.48826268656717 152.7696" height="152.7696" width="131.48826268656717"><g id="textblocktransform"><svg viewBox="0 0 131.48826268656717 152.7696" height="152.7696" width="131.48826268656717" id="textblock"><g><svg viewBox="0 0 131.48826268656717 152.7696" height="152.7696" width="131.48826268656717"><g transform="matrix(1,0,0,1,0,0)"><svg width="131.48826268656717" viewBox="3.5 -40.2 34.6 40.2" height="152.7696" data-palette-color="url(#8741e866-25c2-4c5d-ace9-70b1d69c06b0)"></svg></g></svg></g></svg></g></svg></g><g transform="matrix(1,0,0,1,0,35.754926829850746)"><svg viewBox="0 0 81.2597463402985 81.2597463402985" height="81.2597463402985" width="81.2597463402985"><g><svg xmlns="http://www.w3.org/2000/svg" xmlns:xlink="http://www.w3.org/1999/xlink" xml:space="preserve" version="1.0" style="shape-rendering:geometricPrecision;text-rendering:geometricPrecision;image-rendering:optimizeQuality;" viewBox="5 5 90 90" x="0" y="0" fill-rule="evenodd" clip-rule="evenodd" height="81.2597463402985" width="81.2597463402985" class="icon-icon-0" data-fill-palette-color="accent" id="icon-0"></svg></g></svg></g></svg></g></svg></g><g><path d="M0 123.6c0-68.262 55.338-123.6 123.6-123.6 31.317 0 59.913 11.647 81.694 30.845l-10.646 0c-19.686-15.102-44.319-24.078-71.048-24.078-64.525 0-116.833 52.308-116.833 116.833 0 64.525 52.308 116.833 116.833 116.833 26.729 0 51.362-8.976 71.048-24.078l10.646 0c-21.781 19.198-50.377 30.845-81.694 30.845-68.262 0-123.6-55.338-123.6-123.6z" fill="#ffffff" stroke="transparent" data-fill-palette-color="tertiary"></path></g></svg></g><defs></defs><mask id="22050d88-a349-4f5e-a728-1b2c7f3396c8"><g id="SvgjsG2134"><svg viewBox="0 0 395.52 247.2" height="247.2" width="395.52"><g><svg></svg></g><g><svg viewBox="0 0 395.52 247.2" height="247.2" width="395.52"><g transform="matrix(1,0,0,1,75.54432000000001,48.56042347509087)"><svg viewBox="0 0 244.43135999999996 150.07915304981825" height="150.07915304981825" width="244.43135999999996"><g><svg viewBox="0 0 248.81324511646568 152.7696" height="150.07915304981825" width="244.43135999999996"><g transform="matrix(1,0,0,1,117.32498242989851,0)"><svg viewBox="0 0 131.48826268656717 152.7696" height="152.7696" width="131.48826268656717"><g id="SvgjsG2133"><svg viewBox="0 0 131.48826268656717 152.7696" height="152.7696" width="131.48826268656717" id="SvgjsSvg2132"><g><svg viewBox="0 0 131.48826268656717 152.7696" height="152.7696" width="131.48826268656717"><g transform="matrix(1,0,0,1,0,0)"><svg width="131.48826268656717" viewBox="3.5 -40.2 34.6 40.2" height="152.7696" data-palette-color="url(#8741e866-25c2-4c5d-ace9-70b1d69c06b0)"><path d="M38.1-40.2L38.1-27.7 36.6-27.2 29.95-37.05 23.85-37.05 23.85-3.8 29.1-2 28.1 0 12.9 0 12.9-1.55 17.6-5.25 17.6-37.05 11.65-37.05 5-27.2 3.5-27.7 3.5-40.2 6.2-39.3 35.4-39.3 38.1-40.2Z" opacity="1" transform="matrix(1,0,0,1,0,0)" fill="white" class="wordmark-text-0" id="SvgjsPath2131"></path></svg></g></svg></g></svg></g></svg></g><g transform="matrix(1,0,0,1,0,35.754926829850746)"><svg viewBox="0 0 81.2597463402985 81.2597463402985" height="81.2597463402985" width="81.2597463402985"><g><svg xmlns="http://www.w3.org/2000/svg" xmlns:xlink="http://www.w3.org/1999/xlink" xml:space="preserve" version="1.0" style="shape-rendering:geometricPrecision;text-rendering:geometricPrecision;image-rendering:optimizeQuality;" viewBox="5 5 90 90" x="0" y="0" fill-rule="evenodd" clip-rule="evenodd" height="81.2597463402985" width="81.2597463402985" class="icon-icon-0" data-fill-palette-color="accent" id="SvgjsSvg2130"><g fill="black"><path class="" d="M83 15c0-5-4-10-10-10-5 0-10 5-10 10 0 6 5 10 10 10 6 0 10-4 10-10z m-68 11l3-1 12 21 9 0c-1 0-1 0-1-1 0-2 2-4 4-4l14 0 6-7c2-2 4-5 8-5 0 0 1 0 1 0l0 0 4 0c5 0 9 4 9 8l0 24c0 1 0 2 0 2-2 3-4 4-7 4l9 0 3-32 6 0-4 37 0 1 0 22-6 0 0-22-19 0 0 22-6 0 0-22 0-3-4 0 0 25-8 0 0-19-12 17 0 0c-1 1-2 2-4 2-2 0-5-3-5-5 0-1 1-2 1-3l0 0 17-24 0 0c1-1 2-1 3-1l0-3-35 0c0 41 0 34 0 36l-8 0c0-15 0-29 0-43l8 0 35 0 8 0 0 7 8-2c0 0 3-1 3-3l0-12-6 7-19 0c0 0 0 0 0 0l-14 0-13-23z" fill="black"></path></g></svg></g></svg></g></svg></g></svg></g><g><path d="M0 123.6c0-68.262 55.338-123.6 123.6-123.6 31.317 0 59.913 11.647 81.694 30.845l-10.646 0c-19.686-15.102-44.319-24.078-71.048-24.078-64.525 0-116.833 52.308-116.833 116.833 0 64.525 52.308 116.833 116.833 116.833 26.729 0 51.362-8.976 71.048-24.078l10.646 0c-21.781 19.198-50.377 30.845-81.694 30.845-68.262 0-123.6-55.338-123.6-123.6z" fill="black" stroke="transparent"></path></g></svg></g><defs><mask></mask></defs></svg><rect width="395.52" height="247.2" fill="black" stroke="none" visibility="hidden"></rect></g></mask><linearGradient x1="0" x2="1" y1="0.578" y2="0.595" id="8741e866-25c2-4c5d-ace9-70b1d69c06b0"><stop stop-color="#6ee2f5" offset="0"></stop><stop stop-color="#6454f0" offset="1"></stop></linearGradient><rect width="395.52" height="247.2" fill="#ffffff" mask="url(#22050d88-a349-4f5e-a728-1b2c7f3396c8)" data-fill-palette-color="primary"></rect><mask id="7b903a12-adff-4fa1-8ef2-1a7ba30897b7"><g id="SvgjsG2153"><svg viewBox="0 0 395.52 247.2" height="247.2" width="395.52"><g><svg></svg></g><g><svg viewBox="0 0 395.52 247.2" height="247.2" width="395.52"><g transform="matrix(1,0,0,1,75.54432000000001,48.56042347509087)"><svg viewBox="0 0 244.43135999999996 150.07915304981825" height="150.07915304981825" width="244.43135999999996"><g><svg viewBox="0 0 248.81324511646568 152.7696" height="150.07915304981825" width="244.43135999999996"><g transform="matrix(1,0,0,1,117.32498242989851,0)"><svg viewBox="0 0 131.48826268656717 152.7696" height="152.7696" width="131.48826268656717"><g id="SvgjsG2152"><svg viewBox="0 0 131.48826268656717 152.7696" height="152.7696" width="131.48826268656717" id="SvgjsSvg2151"><g><svg viewBox="0 0 131.48826268656717 152.7696" height="152.7696" width="131.48826268656717"><g transform="matrix(1,0,0,1,0,0)"><svg width="131.48826268656717" viewBox="3.5 -40.2 34.6 40.2" height="152.7696" data-palette-color="url(#8741e866-25c2-4c5d-ace9-70b1d69c06b0)"></svg></g></svg></g></svg></g></svg></g><g transform="matrix(1,0,0,1,0,35.754926829850746)"><svg viewBox="0 0 81.2597463402985 81.2597463402985" height="81.2597463402985" width="81.2597463402985"><g><svg xmlns="http://www.w3.org/2000/svg" xmlns:xlink="http://www.w3.org/1999/xlink" xml:space="preserve" version="1.0" style="shape-rendering:geometricPrecision;text-rendering:geometricPrecision;image-rendering:optimizeQuality;" viewBox="5 5 90 90" x="0" y="0" fill-rule="evenodd" clip-rule="evenodd" height="81.2597463402985" width="81.2597463402985" class="icon-icon-0" data-fill-palette-color="accent" id="SvgjsSvg2150"><g fill="white"><path class="" d="M83 15c0-5-4-10-10-10-5 0-10 5-10 10 0 6 5 10 10 10 6 0 10-4 10-10z m-68 11l3-1 12 21 9 0c-1 0-1 0-1-1 0-2 2-4 4-4l14 0 6-7c2-2 4-5 8-5 0 0 1 0 1 0l0 0 4 0c5 0 9 4 9 8l0 24c0 1 0 2 0 2-2 3-4 4-7 4l9 0 3-32 6 0-4 37 0 1 0 22-6 0 0-22-19 0 0 22-6 0 0-22 0-3-4 0 0 25-8 0 0-19-12 17 0 0c-1 1-2 2-4 2-2 0-5-3-5-5 0-1 1-2 1-3l0 0 17-24 0 0c1-1 2-1 3-1l0-3-35 0c0 41 0 34 0 36l-8 0c0-15 0-29 0-43l8 0 35 0 8 0 0 7 8-2c0 0 3-1 3-3l0-12-6 7-19 0c0 0 0 0 0 0l-14 0-13-23z" fill="white"></path></g></svg></g></svg></g></svg></g></svg></g><g><path d="M0 123.6c0-68.262 55.338-123.6 123.6-123.6 31.317 0 59.913 11.647 81.694 30.845l-10.646 0c-19.686-15.102-44.319-24.078-71.048-24.078-64.525 0-116.833 52.308-116.833 116.833 0 64.525 52.308 116.833 116.833 116.833 26.729 0 51.362-8.976 71.048-24.078l10.646 0c-21.781 19.198-50.377 30.845-81.694 30.845-68.262 0-123.6-55.338-123.6-123.6z" fill="black" stroke="transparent"></path></g></svg></g><defs><mask></mask></defs><mask><g id="SvgjsG2149"><svg viewBox="0 0 395.52 247.2" height="247.2" width="395.52"><g><svg></svg></g><g><svg viewBox="0 0 395.52 247.2" height="247.2" width="395.52"><g transform="matrix(1,0,0,1,75.54432000000001,48.56042347509087)"><svg viewBox="0 0 244.43135999999996 150.07915304981825" height="150.07915304981825" width="244.43135999999996"><g><svg viewBox="0 0 248.81324511646568 152.7696" height="150.07915304981825" width="244.43135999999996"><g transform="matrix(1,0,0,1,117.32498242989851,0)"><svg viewBox="0 0 131.48826268656717 152.7696" height="152.7696" width="131.48826268656717"><g id="SvgjsG2148"><svg viewBox="0 0 131.48826268656717 152.7696" height="152.7696" width="131.48826268656717" id="SvgjsSvg2147"><g><svg viewBox="0 0 131.48826268656717 152.7696" height="152.7696" width="131.48826268656717"><g transform="matrix(1,0,0,1,0,0)"><svg width="131.48826268656717" viewBox="3.5 -40.2 34.6 40.2" height="152.7696" data-palette-color="url(#8741e866-25c2-4c5d-ace9-70b1d69c06b0)"><path d="M38.1-40.2L38.1-27.7 36.6-27.2 29.95-37.05 23.85-37.05 23.85-3.8 29.1-2 28.1 0 12.9 0 12.9-1.55 17.6-5.25 17.6-37.05 11.65-37.05 5-27.2 3.5-27.7 3.5-40.2 6.2-39.3 35.4-39.3 38.1-40.2Z" opacity="1" transform="matrix(1,0,0,1,0,0)" fill="black" class="wordmark-text-0" id="SvgjsPath2146"></path></svg></g></svg></g></svg></g></svg></g><g transform="matrix(1,0,0,1,0,35.754926829850746)"><svg viewBox="0 0 81.2597463402985 81.2597463402985" height="81.2597463402985" width="81.2597463402985"><g><svg xmlns="http://www.w3.org/2000/svg" xmlns:xlink="http://www.w3.org/1999/xlink" xml:space="preserve" version="1.0" style="shape-rendering:geometricPrecision;text-rendering:geometricPrecision;image-rendering:optimizeQuality;" viewBox="5 5 90 90" x="0" y="0" fill-rule="evenodd" clip-rule="evenodd" height="81.2597463402985" width="81.2597463402985" class="icon-icon-0" data-fill-palette-color="accent" id="SvgjsSvg2145"><g fill="black"><path class="" d="M83 15c0-5-4-10-10-10-5 0-10 5-10 10 0 6 5 10 10 10 6 0 10-4 10-10z m-68 11l3-1 12 21 9 0c-1 0-1 0-1-1 0-2 2-4 4-4l14 0 6-7c2-2 4-5 8-5 0 0 1 0 1 0l0 0 4 0c5 0 9 4 9 8l0 24c0 1 0 2 0 2-2 3-4 4-7 4l9 0 3-32 6 0-4 37 0 1 0 22-6 0 0-22-19 0 0 22-6 0 0-22 0-3-4 0 0 25-8 0 0-19-12 17 0 0c-1 1-2 2-4 2-2 0-5-3-5-5 0-1 1-2 1-3l0 0 17-24 0 0c1-1 2-1 3-1l0-3-35 0c0 41 0 34 0 36l-8 0c0-15 0-29 0-43l8 0 35 0 8 0 0 7 8-2c0 0 3-1 3-3l0-12-6 7-19 0c0 0 0 0 0 0l-14 0-13-23z" fill="black"></path></g></svg></g></svg></g></svg></g></svg></g><g><path d="M0 123.6c0-68.262 55.338-123.6 123.6-123.6 31.317 0 59.913 11.647 81.694 30.845l-10.646 0c-19.686-15.102-44.319-24.078-71.048-24.078-64.525 0-116.833 52.308-116.833 116.833 0 64.525 52.308 116.833 116.833 116.833 26.729 0 51.362-8.976 71.048-24.078l10.646 0c-21.781 19.198-50.377 30.845-81.694 30.845-68.262 0-123.6-55.338-123.6-123.6z" fill="black" stroke="transparent"></path></g></svg></g><defs><mask></mask></defs></svg><rect width="395.52" height="247.2" fill="black" stroke="none" visibility="hidden"></rect></g></mask></svg><rect width="395.52" height="247.2" fill="black" stroke="none" visibility="hidden"></rect></g></mask><linearGradient x1="0" x2="1" y1="0.578" y2="0.595" id="b92c5ea4-f8d8-4d47-bfcd-4cfc74146b6f"><stop stop-color="#6ee2f5" offset="0"></stop><stop stop-color="#6454f0" offset="1"></stop></linearGradient><rect width="395.52" height="247.2" fill="#ffffff" mask="url(#7b903a12-adff-4fa1-8ef2-1a7ba30897b7)" data-fill-palette-color="accent"></rect><mask id="7cb16d35-4d86-43f4-b528-11d14271dcae"><g id="SvgjsG2171"><svg viewBox="0 0 395.52 247.2" height="247.2" width="395.52"><g><svg></svg></g><g><svg viewBox="0 0 395.52 247.2" height="247.2" width="395.52"><g transform="matrix(1,0,0,1,75.54432000000001,48.56042347509087)"><svg viewBox="0 0 244.43135999999996 150.07915304981825" height="150.07915304981825" width="244.43135999999996"><g><svg viewBox="0 0 248.81324511646568 152.7696" height="150.07915304981825" width="244.43135999999996"><g transform="matrix(1,0,0,1,117.32498242989851,0)"><svg viewBox="0 0 131.48826268656717 152.7696" height="152.7696" width="131.48826268656717"><g id="SvgjsG2170"><svg viewBox="0 0 131.48826268656717 152.7696" height="152.7696" width="131.48826268656717" id="SvgjsSvg2169"><g><svg viewBox="0 0 131.48826268656717 152.7696" height="152.7696" width="131.48826268656717"><g transform="matrix(1,0,0,1,0,0)"><svg width="131.48826268656717" viewBox="3.5 -40.2 34.6 40.2" height="152.7696" data-palette-color="url(#8741e866-25c2-4c5d-ace9-70b1d69c06b0)"></svg></g></svg></g></svg></g></svg></g><g transform="matrix(1,0,0,1,0,35.754926829850746)"><svg viewBox="0 0 81.2597463402985 81.2597463402985" height="81.2597463402985" width="81.2597463402985"><g><svg xmlns="http://www.w3.org/2000/svg" xmlns:xlink="http://www.w3.org/1999/xlink" xml:space="preserve" version="1.0" style="shape-rendering:geometricPrecision;text-rendering:geometricPrecision;image-rendering:optimizeQuality;" viewBox="5 5 90 90" x="0" y="0" fill-rule="evenodd" clip-rule="evenodd" height="81.2597463402985" width="81.2597463402985" class="icon-icon-0" data-fill-palette-color="accent" id="SvgjsSvg2168"></svg></g></svg></g></svg></g></svg></g><g><path d="M0 123.6c0-68.262 55.338-123.6 123.6-123.6 31.317 0 59.913 11.647 81.694 30.845l-10.646 0c-19.686-15.102-44.319-24.078-71.048-24.078-64.525 0-116.833 52.308-116.833 116.833 0 64.525 52.308 116.833 116.833 116.833 26.729 0 51.362-8.976 71.048-24.078l10.646 0c-21.781 19.198-50.377 30.845-81.694 30.845-68.262 0-123.6-55.338-123.6-123.6z" fill="white" stroke="transparent"></path></g></svg></g><defs><mask></mask></defs><mask><g id="SvgjsG2167"><svg viewBox="0 0 395.52 247.2" height="247.2" width="395.52"><g><svg></svg></g><g><svg viewBox="0 0 395.52 247.2" height="247.2" width="395.52"><g transform="matrix(1,0,0,1,75.54432000000001,48.56042347509087)"><svg viewBox="0 0 244.43135999999996 150.07915304981825" height="150.07915304981825" width="244.43135999999996"><g><svg viewBox="0 0 248.81324511646568 152.7696" height="150.07915304981825" width="244.43135999999996"><g transform="matrix(1,0,0,1,117.32498242989851,0)"><svg viewBox="0 0 131.48826268656717 152.7696" height="152.7696" width="131.48826268656717"><g id="SvgjsG2166"><svg viewBox="0 0 131.48826268656717 152.7696" height="152.7696" width="131.48826268656717" id="SvgjsSvg2165"><g><svg viewBox="0 0 131.48826268656717 152.7696" height="152.7696" width="131.48826268656717"><g transform="matrix(1,0,0,1,0,0)"><svg width="131.48826268656717" viewBox="3.5 -40.2 34.6 40.2" height="152.7696" data-palette-color="url(#8741e866-25c2-4c5d-ace9-70b1d69c06b0)"><path d="M38.1-40.2L38.1-27.7 36.6-27.2 29.95-37.05 23.85-37.05 23.85-3.8 29.1-2 28.1 0 12.9 0 12.9-1.55 17.6-5.25 17.6-37.05 11.65-37.05 5-27.2 3.5-27.7 3.5-40.2 6.2-39.3 35.4-39.3 38.1-40.2Z" opacity="1" transform="matrix(1,0,0,1,0,0)" fill="black" class="wordmark-text-0" id="SvgjsPath2164"></path></svg></g></svg></g></svg></g></svg></g><g transform="matrix(1,0,0,1,0,35.754926829850746)"><svg viewBox="0 0 81.2597463402985 81.2597463402985" height="81.2597463402985" width="81.2597463402985"><g><svg xmlns="http://www.w3.org/2000/svg" xmlns:xlink="http://www.w3.org/1999/xlink" xml:space="preserve" version="1.0" style="shape-rendering:geometricPrecision;text-rendering:geometricPrecision;image-rendering:optimizeQuality;" viewBox="5 5 90 90" x="0" y="0" fill-rule="evenodd" clip-rule="evenodd" height="81.2597463402985" width="81.2597463402985" class="icon-icon-0" data-fill-palette-color="accent" id="SvgjsSvg2163"><g fill="black"><path class="" d="M83 15c0-5-4-10-10-10-5 0-10 5-10 10 0 6 5 10 10 10 6 0 10-4 10-10z m-68 11l3-1 12 21 9 0c-1 0-1 0-1-1 0-2 2-4 4-4l14 0 6-7c2-2 4-5 8-5 0 0 1 0 1 0l0 0 4 0c5 0 9 4 9 8l0 24c0 1 0 2 0 2-2 3-4 4-7 4l9 0 3-32 6 0-4 37 0 1 0 22-6 0 0-22-19 0 0 22-6 0 0-22 0-3-4 0 0 25-8 0 0-19-12 17 0 0c-1 1-2 2-4 2-2 0-5-3-5-5 0-1 1-2 1-3l0 0 17-24 0 0c1-1 2-1 3-1l0-3-35 0c0 41 0 34 0 36l-8 0c0-15 0-29 0-43l8 0 35 0 8 0 0 7 8-2c0 0 3-1 3-3l0-12-6 7-19 0c0 0 0 0 0 0l-14 0-13-23z" fill="black"></path></g></svg></g></svg></g></svg></g></svg></g><g><path d="M0 123.6c0-68.262 55.338-123.6 123.6-123.6 31.317 0 59.913 11.647 81.694 30.845l-10.646 0c-19.686-15.102-44.319-24.078-71.048-24.078-64.525 0-116.833 52.308-116.833 116.833 0 64.525 52.308 116.833 116.833 116.833 26.729 0 51.362-8.976 71.048-24.078l10.646 0c-21.781 19.198-50.377 30.845-81.694 30.845-68.262 0-123.6-55.338-123.6-123.6z" fill="black" stroke="transparent"></path></g></svg></g><defs><mask></mask></defs></svg><rect width="395.52" height="247.2" fill="black" stroke="none" visibility="hidden"></rect></g></mask><mask><g id="SvgjsG2162"><svg viewBox="0 0 395.52 247.2" height="247.2" width="395.52"><g><svg></svg></g><g><svg viewBox="0 0 395.52 247.2" height="247.2" width="395.52"><g transform="matrix(1,0,0,1,75.54432000000001,48.56042347509087)"><svg viewBox="0 0 244.43135999999996 150.07915304981825" height="150.07915304981825" width="244.43135999999996"><g><svg viewBox="0 0 248.81324511646568 152.7696" height="150.07915304981825" width="244.43135999999996"><g transform="matrix(1,0,0,1,117.32498242989851,0)"><svg viewBox="0 0 131.48826268656717 152.7696" height="152.7696" width="131.48826268656717"><g id="SvgjsG2161"><svg viewBox="0 0 131.48826268656717 152.7696" height="152.7696" width="131.48826268656717" id="SvgjsSvg2160"><g><svg viewBox="0 0 131.48826268656717 152.7696" height="152.7696" width="131.48826268656717"><g transform="matrix(1,0,0,1,0,0)"><svg width="131.48826268656717" viewBox="3.5 -40.2 34.6 40.2" height="152.7696" data-palette-color="url(#8741e866-25c2-4c5d-ace9-70b1d69c06b0)"></svg></g></svg></g></svg></g></svg></g><g transform="matrix(1,0,0,1,0,35.754926829850746)"><svg viewBox="0 0 81.2597463402985 81.2597463402985" height="81.2597463402985" width="81.2597463402985"><g><svg xmlns="http://www.w3.org/2000/svg" xmlns:xlink="http://www.w3.org/1999/xlink" xml:space="preserve" version="1.0" style="shape-rendering:geometricPrecision;text-rendering:geometricPrecision;image-rendering:optimizeQuality;" viewBox="5 5 90 90" x="0" y="0" fill-rule="evenodd" clip-rule="evenodd" height="81.2597463402985" width="81.2597463402985" class="icon-icon-0" data-fill-palette-color="accent" id="SvgjsSvg2159"><g fill="black"><path class="" d="M83 15c0-5-4-10-10-10-5 0-10 5-10 10 0 6 5 10 10 10 6 0 10-4 10-10z m-68 11l3-1 12 21 9 0c-1 0-1 0-1-1 0-2 2-4 4-4l14 0 6-7c2-2 4-5 8-5 0 0 1 0 1 0l0 0 4 0c5 0 9 4 9 8l0 24c0 1 0 2 0 2-2 3-4 4-7 4l9 0 3-32 6 0-4 37 0 1 0 22-6 0 0-22-19 0 0 22-6 0 0-22 0-3-4 0 0 25-8 0 0-19-12 17 0 0c-1 1-2 2-4 2-2 0-5-3-5-5 0-1 1-2 1-3l0 0 17-24 0 0c1-1 2-1 3-1l0-3-35 0c0 41 0 34 0 36l-8 0c0-15 0-29 0-43l8 0 35 0 8 0 0 7 8-2c0 0 3-1 3-3l0-12-6 7-19 0c0 0 0 0 0 0l-14 0-13-23z" fill="black"></path></g></svg></g></svg></g></svg></g></svg></g><g><path d="M0 123.6c0-68.262 55.338-123.6 123.6-123.6 31.317 0 59.913 11.647 81.694 30.845l-10.646 0c-19.686-15.102-44.319-24.078-71.048-24.078-64.525 0-116.833 52.308-116.833 116.833 0 64.525 52.308 116.833 116.833 116.833 26.729 0 51.362-8.976 71.048-24.078l10.646 0c-21.781 19.198-50.377 30.845-81.694 30.845-68.262 0-123.6-55.338-123.6-123.6z" fill="black" stroke="transparent"></path></g></svg></g><defs><mask></mask></defs><mask><g id="SvgjsG2158"><svg viewBox="0 0 395.52 247.2" height="247.2" width="395.52"><g><svg></svg></g><g><svg viewBox="0 0 395.52 247.2" height="247.2" width="395.52"><g transform="matrix(1,0,0,1,75.54432000000001,48.56042347509087)"><svg viewBox="0 0 244.43135999999996 150.07915304981825" height="150.07915304981825" width="244.43135999999996"><g><svg viewBox="0 0 248.81324511646568 152.7696" height="150.07915304981825" width="244.43135999999996"><g transform="matrix(1,0,0,1,117.32498242989851,0)"><svg viewBox="0 0 131.48826268656717 152.7696" height="152.7696" width="131.48826268656717"><g id="SvgjsG2157"><svg viewBox="0 0 131.48826268656717 152.7696" height="152.7696" width="131.48826268656717" id="SvgjsSvg2156"><g><svg viewBox="0 0 131.48826268656717 152.7696" height="152.7696" width="131.48826268656717"><g transform="matrix(1,0,0,1,0,0)"><svg width="131.48826268656717" viewBox="3.5 -40.2 34.6 40.2" height="152.7696" data-palette-color="url(#8741e866-25c2-4c5d-ace9-70b1d69c06b0)"><path d="M38.1-40.2L38.1-27.7 36.6-27.2 29.95-37.05 23.85-37.05 23.85-3.8 29.1-2 28.1 0 12.9 0 12.9-1.55 17.6-5.25 17.6-37.05 11.65-37.05 5-27.2 3.5-27.7 3.5-40.2 6.2-39.3 35.4-39.3 38.1-40.2Z" opacity="1" transform="matrix(1,0,0,1,0,0)" fill="black" class="wordmark-text-0" id="SvgjsPath2155"></path></svg></g></svg></g></svg></g></svg></g><g transform="matrix(1,0,0,1,0,35.754926829850746)"><svg viewBox="0 0 81.2597463402985 81.2597463402985" height="81.2597463402985" width="81.2597463402985"><g><svg xmlns="http://www.w3.org/2000/svg" xmlns:xlink="http://www.w3.org/1999/xlink" xml:space="preserve" version="1.0" style="shape-rendering:geometricPrecision;text-rendering:geometricPrecision;image-rendering:optimizeQuality;" viewBox="5 5 90 90" x="0" y="0" fill-rule="evenodd" clip-rule="evenodd" height="81.2597463402985" width="81.2597463402985" class="icon-icon-0" data-fill-palette-color="accent" id="SvgjsSvg2154"><g fill="black"><path class="" d="M83 15c0-5-4-10-10-10-5 0-10 5-10 10 0 6 5 10 10 10 6 0 10-4 10-10z m-68 11l3-1 12 21 9 0c-1 0-1 0-1-1 0-2 2-4 4-4l14 0 6-7c2-2 4-5 8-5 0 0 1 0 1 0l0 0 4 0c5 0 9 4 9 8l0 24c0 1 0 2 0 2-2 3-4 4-7 4l9 0 3-32 6 0-4 37 0 1 0 22-6 0 0-22-19 0 0 22-6 0 0-22 0-3-4 0 0 25-8 0 0-19-12 17 0 0c-1 1-2 2-4 2-2 0-5-3-5-5 0-1 1-2 1-3l0 0 17-24 0 0c1-1 2-1 3-1l0-3-35 0c0 41 0 34 0 36l-8 0c0-15 0-29 0-43l8 0 35 0 8 0 0 7 8-2c0 0 3-1 3-3l0-12-6 7-19 0c0 0 0 0 0 0l-14 0-13-23z" fill="black"></path></g></svg></g></svg></g></svg></g></svg></g><g><path d="M0 123.6c0-68.262 55.338-123.6 123.6-123.6 31.317 0 59.913 11.647 81.694 30.845l-10.646 0c-19.686-15.102-44.319-24.078-71.048-24.078-64.525 0-116.833 52.308-116.833 116.833 0 64.525 52.308 116.833 116.833 116.833 26.729 0 51.362-8.976 71.048-24.078l10.646 0c-21.781 19.198-50.377 30.845-81.694 30.845-68.262 0-123.6-55.338-123.6-123.6z" fill="black" stroke="transparent"></path></g></svg></g><defs><mask></mask></defs></svg><rect width="395.52" height="247.2" fill="black" stroke="none" visibility="hidden"></rect></g></mask></svg><rect width="395.52" height="247.2" fill="black" stroke="none" visibility="hidden"></rect></g></mask></svg><rect width="395.52" height="247.2" fill="black" stroke="none" visibility="hidden"></rect></g></mask><linearGradient x1="0" x2="1" y1="0.578" y2="0.595" id="e4d6d746-0064-49cc-9ac2-7d5a5ba4f434"><stop stop-color="#6ee2f5" offset="0"></stop><stop stop-color="#6454f0" offset="1"></stop></linearGradient></svg><rect width="395.52" height="247.2" fill="none" stroke="none" visibility="hidden"></rect></g></svg></g></svg>